<svg width="96" height="96" viewBox="0 0 96 96" fill="none" xmlns="http://www.w3.org/2000/svg">
<rect width="96" height="96" rx="48" fill="#93CAE6"/>
<path opacity="0.4" d="M66.0809 38.38L48.0009 48.84L29.9209 38.38C30.7209 36.9 31.8809 35.6 33.1809 34.88L43.8609 28.96C46.1409 27.68 49.8609 27.68 52.1409 28.96L62.8209 34.88C64.1209 35.6 65.2809 36.9 66.0809 38.38Z" fill="#264B5D"/>
<path opacity="0.6" d="M48.0012 48.84V68C46.5012 68 45.0012 67.68 43.8612 67.04L33.1813 61.12C30.7613 59.78 28.7812 56.42 28.7812 53.66V42.34C28.7812 41.06 29.2212 39.66 29.9212 38.38L48.0012 48.84Z" fill="#264B5D"/>
<path d="M67.221 42.34V53.66C67.221 56.42 65.241 59.78 62.821 61.12L52.141 67.04C51.001 67.68 49.501 68 48.001 68V48.84L66.081 38.38C66.781 39.66 67.221 41.06 67.221 42.34Z" fill="#264B5D"/>
</svg>
